<svg width="182" height="182" viewBox="0 0 182 182" fill="none" xmlns="http://www.w3.org/2000/svg">
<g clip-path="url(#clip0_20_234)">
<path d="M159 88C162.562 90.429 166.209 93.9193 169 97C171.791 100.081 173.981 103.327 176 107C178.019 110.673 179.05 113.912 180 118C180.95 122.088 181.881 126.734 182 131C182 138.05 180.672 144.779 178 151C175.328 157.221 171.691 162.379 167 167C162.309 171.621 157.175 175.334 151 178C144.825 180.666 138.125 181.941 131 182C125.597 182 120.047 181.6 115 180C109.953 178.4 105.216 176.021 101 173C96.7844 169.979 93.2656 166.206 90 162C86.7344 157.794 83.7812 153.095 82 148H11V11H34V0H45V11H125V0H136V11H159V88ZM22 23V46H148V23H136V34H125V23H45V34H34V23H22ZM80 137C79.8219 135.163 79 132.955 79 131C79 125.905 80.575 120.799 82 116C83.425 111.201 85.0906 106.266 88 102H79V91H91V99C93.4344 95.9785 96.0312 93.3105 99 91C101.969 88.6895 105.556 86.6589 109 85C112.444 83.3411 115.259 81.8294 119 81C122.741 80.1706 127.141 80.0592 131 80C136.938 80 142.538 81.0449 148 83V57H22V137H80ZM131 171C136.522 171 141.191 170.074 146 168C150.809 165.926 155.378 162.614 159 159C162.622 155.386 164.922 150.799 167 146C169.078 141.201 170.941 136.569 171 131C171 125.49 169.078 119.799 167 115C164.922 110.201 162.622 106.614 159 103C155.378 99.3861 150.809 96.0736 146 94C141.191 91.9264 136.581 91.0592 131 91C125.478 91 119.809 91.9264 115 94C110.191 96.0736 106.622 99.3861 103 103C99.3781 106.614 96.0781 110.201 94 115C91.9219 119.799 91.0594 125.431 91 131C91 136.51 91.9219 141.201 94 146C96.0781 150.799 98.3781 155.386 102 159C105.622 162.614 110.191 164.926 115 167C119.809 169.074 125.419 170.941 131 171ZM136 125H154V137H125V102H136V125ZM34 91H45V102H34V91ZM57 91H68V102H57V91ZM57 68H68V80H57V68ZM34 114H45V125H34V114ZM57 114H68V125H57V114ZM91 80H79V68H91V80ZM114 80H102V68H114V80ZM136 80H125V68H136V80Z" fill="#279ACB"/>
<circle cx="131" cy="131" r="57.5" stroke="white" stroke-width="13"/>
</g>
<defs>
<clipPath id="clip0_20_234">
<rect width="182" height="182" fill="white"/>
</clipPath>
</defs>
</svg>
