<svg width="144" height="144" viewBox="0 0 144 144" fill="none" xmlns="http://www.w3.org/2000/svg">
<path fill-rule="evenodd" clip-rule="evenodd" d="M144 72C144 111.766 111.766 144 72 144C60.48 144 49.648 140.81 40 136C37.4514 134.683 34.7821 135.3 32 136L16 140C14.4137 140.423 12.5856 140.426 11 140C9.41438 139.574 8.16063 138.161 7.00001 137C5.8394 135.839 4.42504 134.586 4.00001 133C3.57499 131.414 3.57572 129.586 4.00001 128L8.00001 112C8.6968 109.219 9.31849 106.545 8.00001 104C3.04377 94.04 -0.0176096 83.125 1.46534e-05 72C1.46534e-05 32.2344 32.2344 0 72 0C111.766 0 144 32.2344 144 72ZM72 38C73.4322 38 74.9873 37.9873 76 39C77.0127 40.0127 77 41.5678 77 43C84.8408 44.98 92 51.432 92 60C92 61.4322 91.0127 62.9873 90 64C88.9873 65.0127 87.4322 65 86 65C84.5678 65 84.0127 65.0127 83 64C81.9873 62.9873 81 61.4322 81 60C81 57.2352 77.9328 53 72 53C66.0672 53 63 57.2352 63 60C63 62.7648 66.0672 67 72 67C81.972 67 92 73.5096 92 84C92 92.568 84.8408 99.0272 77 101C77 102.432 77.0127 103.987 76 105C74.9873 106.013 73.4322 106 72 106C70.5678 106 69.0127 106.013 68 105C66.9873 103.987 67 102.432 67 101C59.1592 99.0272 52 92.568 52 84C52 82.5678 52.9873 81.0127 54 80C55.0127 78.9873 56.5678 79 58 79C59.4322 79 59.9873 78.9873 61 80C62.0127 81.0127 63 82.5678 63 84C63 86.7648 66.0672 91 72 91C77.9328 91 81 86.7648 81 84C81 81.2352 77.9328 77 72 77C62.028 77 52 70.4904 52 60C52 51.432 59.1592 44.98 67 43C67 41.5678 66.9873 40.0127 68 39C69.0127 37.9873 70.5678 38 72 38Z" fill="#DAF4FF"/>
</svg>
